{
  "accessors": [
    {
      "bufferView": 2,
      "componentType": 5126,
      "count": 4617,
      "max": [
        1.214651107788086,
        1.214651107788086,
        1.214651107788086
      ],
      "min": [
        -1.2146514654159546,
        -1.214651346206665,
        -1.214651107788086
      ],
      "type": "VEC3"
    },
    {
      "bufferView": 2,
      "byteOffset": 55404,
      "componentType": 5126,
      "count": 4617,
      "max": [
        1.0,
        1.0,
        1.0
      ],
      "min": [
        -1.0,
        -1.0,
        -1.0
      ],
      "type": "VEC3"
    },
    {
      "bufferView": 3,
      "componentType": 5126,
      "count": 4617,
      "max": [
        1.0,
        1.0,
        1.0,
        1.0
      ],
      "min": [
        -1.0,
        -1.0,
        -1.0,
        -1.0
      ],
      "type": "VEC4"
    },
    {
      "bufferView": 3,
      "byteOffset": 73872,
      "componentType": 5126,
      "count": 4617,
      "max": [
        0.9450980424880981,
        0.9450980424880981,
        0.9450980424880981,
        1.0
      ],
      "min": [
        0.1921568661928177,
        0.1921568661928177,
        0.1921568661928177,
        1.0
      ],
      "type": "VEC4"
    },
    {
      "bufferView": 1,
      "componentType": 5126,
      "count": 4617,
      "max": [
        0.996173083782196,
        0.9961758255958557
      ],
      "min": [
        0.003826911561191082,
        0.003824138082563877
      ],
      "type": "VEC2"
    },
    {
      "bufferView": 0,
      "componentType": 5125,
      "count": 16464,
      "type": "SCALAR"
    },
    {
      "bufferView": 2,
      "byteOffset": 110808,
      "componentType": 5126,
      "count": 856,
      "max": [
        0.970716655254364,
        0.9707164168357849,
        0.9707164764404297
      ],
      "min": [
        -0.9707168936729431,
        -0.9707169532775879,
        -0.9707164764404297
      ],
      "type": "VEC3"
    },
    {
      "bufferView": 2,
      "byteOffset": 121080,
      "componentType": 5126,
      "count": 856,
      "max": [
        0.9998239278793335,
        0.9997756481170654,
        0.9997820854187012
      ],
      "min": [
        -0.9998174905776978,
        -0.9998115301132202,
        -0.99980628490448
      ],
      "type": "VEC3"
    },
    {
      "bufferView": 3,
      "byteOffset": 147744,
      "componentType": 5126,
      "count": 856,
      "max": [
        0.7529411911964417,
        0.7529411911964417,
        0.7529411911964417,
        1.0
      ],
      "min": [
        0.14509804546833038,
        0.14509804546833038,
        0.14509804546833038,
        1.0
      ],
      "type": "VEC4"
    },
    {
      "bufferView": 1,
      "byteOffset": 36936,
      "componentType": 5126,
      "count": 856,
      "max": [
        0.9421657919883728,
        0.9509791731834412
      ],
      "min": [
        0.003826911561191082,
        0.003824138082563877
      ],
      "type": "VEC2"
    },
    {
      "bufferView": 0,
      "byteOffset": 65856,
      "componentType": 5125,
      "count": 2256,
      "type": "SCALAR"
    },
    {
      "bufferView": 2,
      "byteOffset": 131352,
      "componentType": 5126,
      "count": 918,
      "max": [
        1.1717240810394287,
        1.1717242002487183,
        1.1717242002487183
      ],
      "min": [
        -1.1717244386672974,
        -1.1717243194580078,
        -1.1717242002487183
      ],
      "type": "VEC3"
    },
    {
      "bufferView": 2,
      "byteOffset": 142368,
      "componentType": 5126,
      "count": 918,
      "max": [
        1.0,
        1.0,
        1.0
      ],
      "min": [
        -1.0,
        -1.0,
        -1.0
      ],
      "type": "VEC3"
    },
    {
      "bufferView": 3,
      "byteOffset": 161440,
      "componentType": 5126,
      "count": 918,
      "max": [
        0.5960784554481506,
        0.5960784554481506,
        0.5960784554481506,
        1.0
      ],
      "min": [
        0.239215686917305,
        0.239215686917305,
        0.239215686917305,
        1.0
      ],
      "type": "VEC4"
    },
    {
      "bufferView": 1,
      "byteOffset": 43784,
      "componentType": 5126,
      "count": 918,
      "max": [
        0.9912641048431396,
        0.9812948107719421
      ],
      "min": [
        0.08087290078401566,
        0.06167753413319588
      ],
      "type": "VEC2"
    },
    {
      "bufferView": 0,
      "byteOffset": 74880,
      "componentType": 5125,
      "count": 3456,
      "type": "SCALAR"
    }
  ],
  "asset": {
    "extras": {
      "author": "PounUP (https://sketchfab.com/PounUP)",
      "license": "CC-BY-NC-4.0 (http://creativecommons.org/licenses/by-nc/4.0/)",
      "source": "https://sketchfab.com/3d-models/generator3-5b39de4c30df4e95a160e4a99487f2fa",
      "title": "Generator3"
    },
    "generator": "Sketchfab-12.68.0",
    "version": "2.0"
  },
  "bufferViews": [
    {
      "buffer": 0,
      "byteLength": 88704,
      "name": "floatBufferViews",
      "target": 34963
    },
    {
      "buffer": 0,
      "byteLength": 51128,
      "byteOffset": 88704,
      "byteStride": 8,
      "name": "floatBufferViews",
      "target": 34962
    },
    {
      "buffer": 0,
      "byteLength": 153384,
      "byteOffset": 139832,
      "byteStride": 12,
      "name": "floatBufferViews",
      "target": 34962
    },
    {
      "buffer": 0,
      "byteLength": 176128,
      "byteOffset": 293216,
      "byteStride": 16,
      "name": "floatBufferViews",
      "target": 34962
    }
  ],
  "buffers": [
    {
      "byteLength": 469344,
      "uri": "scene.bin"
    }
  ],
  "extensionsRequired": [
    "KHR_materials_pbrSpecularGlossiness"
  ],
  "extensionsUsed": [
    "KHR_materials_pbrSpecularGlossiness"
  ],
  "images": [
    {
      "uri": "textures/material_normal.png"
    },
    {
      "uri": "textures/material_occlusion.png"
    }
  ],
  "materials": [
    {
      "doubleSided": true,
      "extensions": {
        "KHR_materials_pbrSpecularGlossiness": {
          "diffuseFactor": [
            0.001712375681525524,
            0.0016593374966995121,
            0.0016593374966995121,
            1.0
          ],
          "glossinessFactor": 0.9041539634146342,
          "specularFactor": [
            0.45903201219512196,
            0.45903201219512196,
            0.45903201219512196
          ]
        }
      },
      "name": "material",
      "normalTexture": {
        "index": 0
      },
      "occlusionTexture": {
        "index": 1
      }
    },
    {
      "doubleSided": true,
      "emissiveFactor": [
        0.007499032043226175,
        0.7991027380144088,
        0.6866853124353137
      ],
      "extensions": {
        "KHR_materials_pbrSpecularGlossiness": {
          "diffuseFactor": [
            0.007499032043226175,
            0.7991027380144088,
            0.6866853124353137,
            1.0
          ],
          "glossinessFactor": 0.042294850537622566,
          "specularFactor": [
            0.0,
            0.0,
            0.0
          ]
        }
      },
      "name": "Blue"
    },
    {
      "doubleSided": true,
      "emissiveFactor": [
        1.0,
        0.0,
        0.0
      ],
      "extensions": {
        "KHR_materials_pbrSpecularGlossiness": {
          "diffuseFactor": [
            1.0,
            0.0,
            0.0,
            1.0
          ],
          "glossinessFactor": 0.042294850537622566,
          "specularFactor": [
            0.0,
            0.0,
            0.0
          ]
        }
      },
      "name": "material_2"
    }
  ],
  "meshes": [
    {
      "name": "Gen HP.001_All_0",
      "primitives": [
        {
          "attributes": {
            "COLOR_0": 3,
            "NORMAL": 1,
            "POSITION": 0,
            "TANGENT": 2,
            "TEXCOORD_0": 4
          },
          "indices": 5,
          "material": 0,
          "mode": 4
        }
      ]
    },
    {
      "name": "Gen HP.001_Blue_0",
      "primitives": [
        {
          "attributes": {
            "COLOR_0": 8,
            "NORMAL": 7,
            "POSITION": 6,
            "TEXCOORD_0": 9
          },
          "indices": 10,
          "material": 1,
          "mode": 4
        }
      ]
    },
    {
      "name": "Gen HP.001_Red_0",
      "primitives": [
        {
          "attributes": {
            "COLOR_0": 13,
            "NORMAL": 12,
            "POSITION": 11,
            "TEXCOORD_0": 14
          },
          "indices": 15,
          "material": 2,
          "mode": 4
        }
      ]
    }
  ],
  "nodes": [
    {
      "children": [
        1
      ],
      "matrix": [
        1.0,
        0.0,
        0.0,
        0.0,
        0.0,
        2.220446049250313e-16,
        -1.0,
        0.0,
        0.0,
        1.0,
        2.220446049250313e-16,
        0.0,
        0.0,
        0.0,
        0.0,
        1.0
      ],
      "name": "Sketchfab_model"
    },
    {
      "children": [
        2
      ],
      "matrix": [
        1.0,
        0.0,
        0.0,
        0.0,
        0.0,
        0.0,
        1.0,
        0.0,
        0.0,
        -1.0,
        0.0,
        0.0,
        0.0,
        0.0,
        0.0,
        1.0
      ],
      "name": "29848e29c9804f2db696f12463395878.fbx"
    },
    {
      "children": [
        3
      ],
      "name": "RootNode"
    },
    {
      "children": [
        4,
        5,
        6
      ],
      "matrix": [
        100.0,
        0.0,
        0.0,
        0.0,
        0.0,
        -1.629206793918314e-05,
        -99.99999999999868,
        0.0,
        0.0,
        99.99999999999868,
        -1.629206793918314e-05,
        0.0,
        0.0,
        0.0,
        0.0,
        1.0
      ],
      "name": "Gen HP.001"
    },
    {
      "mesh": 0,
      "name": "Gen HP.001_All_0"
    },
    {
      "mesh": 1,
      "name": "Gen HP.001_Blue_0"
    },
    {
      "mesh": 2,
      "name": "Gen HP.001_Red_0"
    }
  ],
  "samplers": [
    {
      "magFilter": 9729,
      "minFilter": 9987,
      "wrapS": 10497,
      "wrapT": 10497
    }
  ],
  "scene": 0,
  "scenes": [
    {
      "name": "Sketchfab_Scene",
      "nodes": [
        0
      ]
    }
  ],
  "textures": [
    {
      "sampler": 0,
      "source": 0
    },
    {
      "sampler": 0,
      "source": 1
    }
  ]
}
