{
  "accessors": [
    {
      "bufferView": 2,
      "componentType": 5126,
      "count": 19663,
      "max": [
        5.417689800262451,
        5.520579814910889,
        -1.0
      ],
      "min": [
        -5.339940071105957,
        -5.196969985961914,
        -4.229050159454346
      ],
      "type": "VEC3"
    },
    {
      "bufferView": 2,
      "byteOffset": 235956,
      "componentType": 5126,
      "count": 19663,
      "max": [
        1.0,
        1.0,
        1.0
      ],
      "min": [
        -1.0,
        -1.0,
        -1.0
      ],
      "type": "VEC3"
    },
    {
      "bufferView": 1,
      "componentType": 5126,
      "count": 19663,
      "max": [
        1.0,
        2.0
      ],
      "min": [
        0.0,
        1.001386046409607
      ],
      "type": "VEC2"
    },
    {
      "bufferView": 1,
      "byteOffset": 157304,
      "componentType": 5126,
      "count": 19663,
      "max": [
        1.0,
        2.0
      ],
      "min": [
        0.0,
        1.001386046409607
      ],
      "type": "VEC2"
    },
    {
      "bufferView": 1,
      "byteOffset": 314608,
      "componentType": 5126,
      "count": 19663,
      "max": [
        1.0,
        2.0
      ],
      "min": [
        0.0,
        1.001386046409607
      ],
      "type": "VEC2"
    },
    {
      "bufferView": 1,
      "byteOffset": 471912,
      "componentType": 5126,
      "count": 19663,
      "max": [
        1.0,
        2.0
      ],
      "min": [
        0.0,
        1.001386046409607
      ],
      "type": "VEC2"
    },
    {
      "bufferView": 0,
      "componentType": 5125,
      "count": 35964,
      "type": "SCALAR"
    },
    {
      "bufferView": 2,
      "byteOffset": 471912,
      "componentType": 5126,
      "count": 640,
      "max": [
        1.9121999740600586,
        2.0163300037384033,
        -2.4949300289154053
      ],
      "min": [
        -1.9148199558258057,
        -1.8107099533081055,
        -3.092900037765503
      ],
      "type": "VEC3"
    },
    {
      "bufferView": 2,
      "byteOffset": 479592,
      "componentType": 5126,
      "count": 640,
      "max": [
        1.0,
        1.0,
        1.0
      ],
      "min": [
        -1.0,
        -1.0,
        -1.0
      ],
      "type": "VEC3"
    },
    {
      "bufferView": 1,
      "byteOffset": 629216,
      "componentType": 5126,
      "count": 640,
      "max": [
        0.9984880089759827,
        2.000030040740967
      ],
      "min": [
        0.6849650144577026,
        0.9999949932098389
      ],
      "type": "VEC2"
    },
    {
      "bufferView": 1,
      "byteOffset": 634336,
      "componentType": 5126,
      "count": 640,
      "max": [
        0.9984880089759827,
        2.000030040740967
      ],
      "min": [
        0.6849650144577026,
        0.9999949932098389
      ],
      "type": "VEC2"
    },
    {
      "bufferView": 1,
      "byteOffset": 639456,
      "componentType": 5126,
      "count": 640,
      "max": [
        0.9984880089759827,
        2.000030040740967
      ],
      "min": [
        0.6849650144577026,
        0.9999949932098389
      ],
      "type": "VEC2"
    },
    {
      "bufferView": 1,
      "byteOffset": 644576,
      "componentType": 5126,
      "count": 640,
      "max": [
        0.9984880089759827,
        2.000030040740967
      ],
      "min": [
        0.6849650144577026,
        0.9999949932098389
      ],
      "type": "VEC2"
    },
    {
      "bufferView": 0,
      "byteOffset": 143856,
      "componentType": 5125,
      "count": 1272,
      "type": "SCALAR"
    },
    {
      "bufferView": 2,
      "byteOffset": 487272,
      "componentType": 5126,
      "count": 3412,
      "max": [
        5.0216498374938965,
        5.11152982711792,
        -2.1959400177001953
      ],
      "min": [
        -5.024280071258545,
        -4.9344000816345215,
        -3.5563299655914307
      ],
      "type": "VEC3"
    },
    {
      "bufferView": 2,
      "byteOffset": 528216,
      "componentType": 5126,
      "count": 3412,
      "max": [
        1.0,
        1.0,
        1.0
      ],
      "min": [
        -1.0,
        -1.0,
        -1.0
      ],
      "type": "VEC3"
    },
    {
      "bufferView": 1,
      "byteOffset": 649696,
      "componentType": 5126,
      "count": 3412,
      "max": [
        0.997875988483429,
        1.6345930099487305
      ],
      "min": [
        0.044241998344659805,
        1.027237057685852
      ],
      "type": "VEC2"
    },
    {
      "bufferView": 1,
      "byteOffset": 676992,
      "componentType": 5126,
      "count": 3412,
      "max": [
        0.997875988483429,
        1.6345930099487305
      ],
      "min": [
        0.044241998344659805,
        1.027237057685852
      ],
      "type": "VEC2"
    },
    {
      "bufferView": 1,
      "byteOffset": 704288,
      "componentType": 5126,
      "count": 3412,
      "max": [
        0.997875988483429,
        1.6345930099487305
      ],
      "min": [
        0.044241998344659805,
        1.027237057685852
      ],
      "type": "VEC2"
    },
    {
      "bufferView": 1,
      "byteOffset": 731584,
      "componentType": 5126,
      "count": 3412,
      "max": [
        0.997875988483429,
        1.6345930099487305
      ],
      "min": [
        0.044241998344659805,
        1.027237057685852
      ],
      "type": "VEC2"
    },
    {
      "bufferView": 0,
      "byteOffset": 148944,
      "componentType": 5125,
      "count": 6294,
      "type": "SCALAR"
    }
  ],
  "asset": {
    "extras": {
      "author": "Astro Juggernaut (https://sketchfab.com/skibiditoilet78)",
      "license": "CC-BY-4.0 (http://creativecommons.org/licenses/by/4.0/)",
      "source": "https://sketchfab.com/3d-models/generator-b163f12843354cba9a1e82b97f58561f",
      "title": "Generator"
    },
    "generator": "Sketchfab-16.62.0",
    "version": "2.0"
  },
  "bufferViews": [
    {
      "buffer": 0,
      "byteLength": 174120,
      "name": "floatBufferViews",
      "target": 34963
    },
    {
      "buffer": 0,
      "byteLength": 758880,
      "byteOffset": 174120,
      "byteStride": 8,
      "name": "floatBufferViews",
      "target": 34962
    },
    {
      "buffer": 0,
      "byteLength": 569160,
      "byteOffset": 933000,
      "byteStride": 12,
      "name": "floatBufferViews",
      "target": 34962
    }
  ],
  "buffers": [
    {
      "byteLength": 1502160,
      "uri": "scene.bin"
    }
  ],
  "extensionsUsed": [
    "KHR_materials_specular"
  ],
  "images": [
    {
      "uri": "textures/Object01Mtl_baseColor.png"
    },
    {
      "uri": "textures/Object01Mtl_metallicRoughness.png"
    },
    {
      "uri": "textures/Object11Mtl_baseColor.png"
    },
    {
      "uri": "textures/Object11Mtl_metallicRoughness.png"
    },
    {
      "uri": "textures/Object21Mtl_baseColor.png"
    },
    {
      "uri": "textures/Object21Mtl_metallicRoughness.png"
    }
  ],
  "materials": [
    {
      "alphaMode": "BLEND",
      "doubleSided": true,
      "extensions": {
        "KHR_materials_specular": {
          "specularColorFactor": [
            1.0,
            1.0,
            1.0
          ],
          "specularFactor": 1.0
        }
      },
      "name": "Object01Mtl",
      "pbrMetallicRoughness": {
        "baseColorTexture": {
          "index": 0
        },
        "metallicRoughnessTexture": {
          "index": 1
        }
      }
    },
    {
      "doubleSided": true,
      "extensions": {
        "KHR_materials_specular": {
          "specularColorFactor": [
            1.0,
            1.0,
            1.0
          ],
          "specularFactor": 1.0
        }
      },
      "name": "Object11Mtl",
      "pbrMetallicRoughness": {
        "baseColorTexture": {
          "index": 2
        },
        "metallicRoughnessTexture": {
          "index": 3
        }
      }
    },
    {
      "alphaMode": "BLEND",
      "doubleSided": true,
      "extensions": {
        "KHR_materials_specular": {
          "specularColorFactor": [
            1.0,
            1.0,
            1.0
          ],
          "specularFactor": 1.0
        }
      },
      "name": "Object21Mtl",
      "pbrMetallicRoughness": {
        "baseColorTexture": {
          "index": 4
        },
        "metallicRoughnessTexture": {
          "index": 5
        }
      }
    }
  ],
  "meshes": [
    {
      "name": "Object_0",
      "primitives": [
        {
          "attributes": {
            "NORMAL": 1,
            "POSITION": 0,
            "TEXCOORD_0": 2,
            "TEXCOORD_1": 3,
            "TEXCOORD_2": 4,
            "TEXCOORD_3": 5
          },
          "indices": 6,
          "material": 0,
          "mode": 4
        }
      ]
    },
    {
      "name": "Object_1",
      "primitives": [
        {
          "attributes": {
            "NORMAL": 8,
            "POSITION": 7,
            "TEXCOORD_0": 9,
            "TEXCOORD_1": 10,
            "TEXCOORD_2": 11,
            "TEXCOORD_3": 12
          },
          "indices": 13,
          "material": 1,
          "mode": 4
        }
      ]
    },
    {
      "name": "Object_2",
      "primitives": [
        {
          "attributes": {
            "NORMAL": 15,
            "POSITION": 14,
            "TEXCOORD_0": 16,
            "TEXCOORD_1": 17,
            "TEXCOORD_2": 18,
            "TEXCOORD_3": 19
          },
          "indices": 20,
          "material": 2,
          "mode": 4
        }
      ]
    }
  ],
  "nodes": [
    {
      "children": [
        1
      ],
      "matrix": [
        1.0,
        0.0,
        0.0,
        0.0,
        0.0,
        2.220446049250313e-16,
        -1.0,
        0.0,
        0.0,
        1.0,
        2.220446049250313e-16,
        0.0,
        0.0,
        0.0,
        0.0,
        1.0
      ],
      "name": "Sketchfab_model"
    },
    {
      "children": [
        2
      ],
      "name": "root"
    },
    {
      "children": [
        3,
        5,
        7
      ],
      "matrix": [
        1.0,
        0.0,
        0.0,
        0.0,
        0.0,
        2.220446049250313e-16,
        1.0,
        0.0,
        0.0,
        -1.0,
        2.220446049250313e-16,
        0.0,
        0.0,
        0.0,
        0.0,
        1.0
      ],
      "name": "GLTF_SceneRootNode"
    },
    {
      "children": [
        4
      ],
      "matrix": [
        1.0,
        0.0,
        0.0,
        0.0,
        0.0,
        0.0,
        1.0,
        0.0,
        0.0,
        -1.0,
        0.0,
        0.0,
        0.0,
        -0.9891289472579956,
        0.0,
        1.0
      ],
      "name": "gen 1_0"
    },
    {
      "mesh": 0,
      "name": "Object_4"
    },
    {
      "children": [
        6
      ],
      "matrix": [
        1.0,
        0.0,
        0.0,
        0.0,
        0.0,
        0.0,
        1.0,
        0.0,
        0.0,
        -1.0,
        0.0,
        0.0,
        0.0,
        -0.9891289472579956,
        0.0,
        1.0
      ],
      "name": "gen 2_1"
    },
    {
      "mesh": 1,
      "name": "Object_6"
    },
    {
      "children": [
        8
      ],
      "matrix": [
        1.0,
        0.0,
        0.0,
        0.0,
        0.0,
        0.0,
        1.0,
        0.0,
        0.0,
        -1.0,
        0.0,
        0.0,
        0.0,
        -0.9891289472579956,
        0.0,
        1.0
      ],
      "name": "gen 3_2"
    },
    {
      "mesh": 2,
      "name": "Object_8"
    }
  ],
  "samplers": [
    {
      "magFilter": 9729,
      "minFilter": 9987,
      "wrapS": 10497,
      "wrapT": 10497
    }
  ],
  "scene": 0,
  "scenes": [
    {
      "name": "Sketchfab_Scene",
      "nodes": [
        0
      ]
    }
  ],
  "textures": [
    {
      "sampler": 0,
      "source": 0
    },
    {
      "sampler": 0,
      "source": 1
    },
    {
      "sampler": 0,
      "source": 2
    },
    {
      "sampler": 0,
      "source": 3
    },
    {
      "sampler": 0,
      "source": 4
    },
    {
      "sampler": 0,
      "source": 5
    }
  ]
}
